<?xml version="1.0" standalone="no"?>
<!DOCTYPE svg PUBLIC "-//W3C//DTD SVG 20010904//EN"
 "http://www.w3.org/TR/2001/REC-SVG-20010904/DTD/svg10.dtd">
<svg version="1.0" xmlns="http://www.w3.org/2000/svg"
 width="1376.000000pt" height="1376.000000pt" viewBox="0 0 1376.000000 1376.000000"
 preserveAspectRatio="xMidYMid meet">
<metadata>
Created by potrace 1.11, written by Peter Selinger 2001-2013
</metadata>
<g transform="translate(0.000000,1376.000000) scale(0.100000,-0.100000)"
fill="#000000" stroke="none">
<path d="M6455 13744 c-802 -62 -1432 -202 -2107 -470 -2287 -905 -3924 -2977
-4272 -5404 -54 -372 -61 -491 -61 -990 0 -499 7 -618 61 -990 348 -2427 1985
-4499 4272 -5404 606 -240 1202 -383 1892 -453 252 -26 1028 -26 1280 0 1063
108 2008 417 2889 945 1775 1062 2983 2874 3275 4912 54 372 61 491 61 990 0
499 -7 617 -61 990 -327 2285 -1801 4266 -3902 5245 -610 284 -1248 474 -1912
569 -348 50 -470 58 -930 61 -239 1 -457 1 -485 -1z m615 -3274 c512 -31 943
-143 1395 -365 606 -297 1104 -746 1468 -1325 99 -156 250 -462 316 -640 301
-812 301 -1708 0 -2520 -66 -177 -217 -484 -316 -640 -245 -390 -556 -726
-928 -1001 -325 -240 -745 -446 -1140 -557 -739 -209 -1526 -178 -2245 89
-178 66 -484 217 -640 316 -469 295 -858 684 -1153 1153 -99 156 -250 463
-316 640 -234 631 -287 1307 -155 1975 100 502 328 1014 635 1425 353 472 783
830 1304 1085 491 241 983 359 1555 373 30 1 129 -3 220 -8z"/>
<path d="M6685 10150 c-341 -21 -674 -93 -984 -214 -1043 -407 -1813 -1319
-2031 -2406 -46 -229 -62 -398 -62 -650 0 -252 16 -421 62 -650 256 -1281
1279 -2304 2560 -2560 229 -46 398 -62 650 -62 252 0 421 16 650 62 1281 256
2304 1279 2560 2560 46 229 62 398 62 650 0 252 -16 421 -62 650 -256 1281
-1279 2304 -2560 2560 -267 53 -583 76 -845 60z m517 -2357 c808 -456 1468
-831 1468 -835 0 -3 -649 -406 -1442 -894 -794 -488 -1478 -909 -1520 -936
l-78 -48 0 1800 0 1800 53 -30 c28 -16 712 -402 1519 -857z"/>
</g>
</svg>
